<svg width="2522" height="2497" xmlns="http://www.w3.org/2000/svg" xmlns:xlink="http://www.w3.org/1999/xlink" xml:space="preserve" overflow="hidden"><defs><clipPath id="clip0"><rect x="801" y="0" width="2522" height="2497"/></clipPath></defs><g clip-path="url(#clip0)" transform="translate(-801 0)"><path d="M944.385 1146.67C892.557 1166.52 855.292 1221.87 855.292 1287.26L855.292 1424.94C855.292 1506.8 913.973 1573.16 986.36 1573.16L1004.99 1573.16C1031.87 1573.16 1055.64 1558.63 1070.74 1536.11 1105.33 1612.39 1161.44 1674.27 1229.76 1711.69 1132.74 1741.36 1043.33 1799.36 970.94 1881.1 862.142 2004.26 801 2171.24 801 2345.39L801 2466C801 2483.07 813.314 2497 828.413 2497L1934.59 2497C1949.58 2497 1962 2483.07 1962 2466L1962 2345.39C1962 2171.26 1900.86 2004.27 1791.96 1881.1 1719.68 1799.36 1630.26 1741.36 1533.24 1711.69 1601.78 1674.28 1657.68 1612.4 1692.26 1536.11 1707.25 1558.63 1731.13 1573.16 1758.01 1573.16L1776.96 1573.16C1849.24 1573.16 1907.93 1506.8 1907.93 1424.94L1907.93 1287.26C1907.93 1221.87 1870.66 1166.53 1818.62 1146.67 1808.45 952.431 1665.92 798.534 1491.58 798.534L1271.42 798.534C1097.09 798.534 954.55 952.444 944.379 1146.67ZM1907.16 2345.38 1907.16 2434.99 855.813 2434.99 855.813 2345.38C855.813 2187.72 911.174 2036.47 1009.91 1925.05 1108.31 1813.52 1242.06 1750.91 1381.6 1750.91 1520.91 1750.91 1654.66 1813.52 1753.3 1925.05 1851.7 2036.46 1907.17 2187.7 1907.17 2345.38ZM3268.17 1077.63 1907.16 1077.63C1892.06 1077.63 1879.75 1091.55 1879.75 1108.63 1879.75 1125.82 1892.06 1139.63 1907.16 1139.63L3268.17 1139.63 3268.17 1261.21C3268.17 1277.68 3262.39 1293.42 3252 1305.05 3241.83 1316.67 3227.91 1323.21 3213.35 1323.21L1986.61 1323.21C1971.29 1323.21 1959.19 1337.14 1959.19 1354.21 1959.19 1371.28 1971.29 1385.21 1986.61 1385.21L2165.11 1385.21 2165.11 1633.57 2063.92 1633.57C2008.77 1633.57 1964.44 1683.95 1964.44 1745.95L1964.44 1882.91C1964.44 1900.1 1976.75 1913.91 1991.85 1913.91L2810.93 1913.91C2826.03 1913.91 2838.34 1900.1 2838.34 1882.91L2838.34 1745.95C2838.34 1683.95 2793.69 1633.57 2738.86 1633.57L2637.67 1633.57 2637.67 1385.21 3213.35 1385.21C3242.37 1385.21 3270.32 1372.13 3290.88 1348.88 3311.43 1325.63 3323 1294.15 3323 1261.21L3323 124.001C3323 55.5835 3273.96 0 3213.35 0L1589.45 0C1528.84 0 1479.79 55.5835 1479.79 124.001L1479.79 707.082C1479.79 724.278 1491.79 738.082 1507.21 738.082 1522.2 738.082 1534.62 724.278 1534.62 707.082L1534.62 124.001C1534.62 89.851 1558.93 62.0003 1589.45 62.0003L3213.35 62.0003C3243.76 62.0003 3268.17 89.8521 3268.17 124.001ZM2783.51 1745.96 2783.51 1851.92 2019.26 1851.92 2019.26 1745.96C2019.26 1718.11 2039.28 1695.58 2063.91 1695.58L2738.85 1695.58C2763.48 1695.58 2783.5 1718.11 2783.5 1745.96ZM1381.57 1023.29C1543.91 1023.29 1675.71 1172.47 1675.71 1356.04 1675.71 1539.74 1543.89 1688.92 1381.57 1688.92 1219.02 1688.92 1087.21 1539.73 1087.21 1356.04 1087.21 1172.46 1219.03 1023.29 1381.57 1023.29ZM2219.92 1385.24 2219.92 1633.61 2582.82 1633.61 2582.82 1385.24ZM1853.05 1287.28 1853.05 1424.96C1853.05 1472.67 1818.78 1511.18 1776.91 1511.18L1757.96 1511.18C1742.86 1511.18 1730.55 1497.37 1730.55 1480.18L1730.55 1232.06C1730.55 1214.86 1742.86 1201.06 1757.96 1201.06L1776.91 1201.06C1818.78 1201.06 1853.05 1239.56 1853.05 1287.27ZM1032.35 1232.06 1032.35 1480.18C1032.35 1497.38 1019.93 1511.18 1004.94 1511.18L986.308 1511.18C944.009 1511.18 910.067 1472.67 910.067 1424.96L910.067 1287.28C910.067 1239.57 944.012 1201.06 986.308 1201.06L1004.94 1201.06C1019.93 1201.06 1032.35 1214.87 1032.35 1232.06ZM1763.19 1139.06C1749.7 982.725 1633.19 860.541 1491.52 860.541L1271.36 860.541C1129.58 860.541 1013.07 982.725 999.688 1139.06L1004.94 1139.06C1031.81 1139.06 1055.59 1153.59 1070.68 1176.11 1128.51 1048.6 1246.08 961.291 1381.55 961.291 1517.01 961.291 1634.27 1048.6 1692.19 1176.11 1707.19 1153.59 1731.07 1139.06 1757.94 1139.06ZM2456.11 267.428 2293.88 875.309C2289.49 891.657 2297.74 909.093 2312.19 913.938 2326.76 918.904 2342.07 909.579 2346.46 893.231L2508.8 285.35C2512.87 269.002 2504.62 251.687 2490.38 246.72 2475.92 241.755 2460.5 251.08 2456.11 267.428ZM2170.74 340.569 1889.02 554.662C1881.31 560.354 1876.59 570.041 1876.59 580.334 1876.59 590.748 1881.31 600.315 1889.02 606.128L2170.74 820.22C2183.38 829.666 2200.4 825.912 2208.86 811.744 2217.11 797.455 2213.79 778.202 2201.47 768.635L1953.36 580.334 2201.47 392.033C2213.79 382.466 2217.11 363.212 2208.86 349.045 2200.4 334.756 2183.38 331.002 2170.74 340.568ZM2601.21 392.036 2849.21 580.337 2601.21 768.638C2588.57 778.204 2585.25 797.458 2593.71 811.746 2602.28 825.914 2619.2 829.669 2631.83 820.223L2913.67 606.13C2921.38 600.318 2925.77 590.751 2925.77 580.337 2925.77 570.044 2921.38 560.357 2913.67 554.665L2631.83 340.572C2619.2 331.006 2602.28 334.76 2593.71 349.049 2585.25 363.217 2588.57 382.47 2601.21 392.037Z" fill="#FFFFFF" fill-rule="evenodd"/></g></svg>