<svg width="1813" height="2027" xmlns="http://www.w3.org/2000/svg" xmlns:xlink="http://www.w3.org/1999/xlink" xml:space="preserve" overflow="hidden"><defs><clipPath id="clip0"><rect x="1260" y="113" width="1813" height="2027"/></clipPath></defs><g clip-path="url(#clip0)" transform="translate(-1260 -113)"><path d="M2305.78 1414.06C2305.78 1411.77 2303.49 1407.2 2303.49 1405 2301.21 1400.43 2280.73 1370.87 2280.73 1368.58L2269.39 1357.24C2267.1 1354.95 2264.82 1352.66 2262.53 1350.37 2260.25 1348.09 2017.06 1277.63 1876.17 1275.34 1894.37 1120.7 1905.7 1002.38 1907.99 906.856L2044.39 997.814C2062.59 1009.16 2080.78 1013.74 2101.17 1013.74L2114.79 1013.74 2123.84 1013.74 2389.7 1013.74C2446.47 1013.74 2492 968.258 2492 911.343 2492 854.518 2446.56 808.95 2389.7 808.95L2128.5 808.95 1837.58 617.887C1812.62 590.619 1776.24 570.122 1735.28 567.834 1648.89 558.773 1569.35 624.659 1562.58 711.131 1537.62 972.738 1530.76 1197.93 1539.81 1402.63L1539.81 1404.92C1542.1 1482.24 1601.16 1548.21 1680.7 1557.36L1698.89 1557.36C1705.75 1557.36 1712.52 1557.36 1717.09 1555.08 1721.66 1555.08 1726.14 1557.36 1730.71 1557.36L2073.92 1557.36 2042.1 1996.4C2037.53 2060.09 2085.25 2112.42 2146.6 2117L2155.65 2117C2214.71 2117 2264.72 2071.52 2269.29 2012.41L2310.16 1450.58 2310.16 1446 2310.16 1434.65C2310.16 1432.37 2310.16 1427.79 2307.87 1425.59 2308.05 1420.84 2305.76 1416.36 2305.76 1414.07Z" fill="#FFFFFF" fill-rule="evenodd"/><path d="M1814.86 522.828C1926.53 495.56 1994.93 384.109 1969.81 274.853 1944.78 165.69 1830.81 92.9454 1719.14 117.926 1607.47 145.193 1539.07 256.644 1564.19 365.9 1591.51 479.637 1703.19 547.896 1814.86 522.828Z" fill="#FFFFFF" fill-rule="evenodd"/><path d="M1916.71 1596.55 1494.11 1596.55 1464.58 984.872C1462.29 928.066 1414.58 884.801 1357.81 887.086 1301.04 889.373 1257.8 937.123 1260.09 993.928L1294.18 1703.4C1296.47 1758.01 1341.9 1801.18 1396.47 1801.18L1605.53 1801.18 1605.53 1960.35 1548.77 1960.35C1448.76 1960.35 1369.23 2039.93 1369.23 2140L1460.1 2140C1460.1 2089.96 1500.96 2051.36 1548.68 2051.36L1757.65 2051.36C1807.66 2051.36 1846.23 2092.25 1846.23 2140L1937.1 2140C1937.1 2039.93 1857.57 1960.35 1757.56 1960.35L1718.9 1960.35 1718.9 1801.18 1916.71 1801.27C1973.48 1801.27 2019 1755.81 2019 1698.92 2019 1642.11 1973.57 1596.56 1916.71 1596.56Z" fill="#FFFFFF" fill-rule="evenodd"/><path d="M2249 1205 2249 1261.83 2633.67 1261.83 2633.67 2140 2747.49 2140 2747.49 1261.83 3073 1261.83 3073 1205Z" fill="#FFFFFF" fill-rule="evenodd"/><path d="M2342 1186.65 2733.48 1186.65C2747.12 1188.94 2760.76 1179.79 2765.34 1166.16L2911 781.969 2847.28 757 2710.68 1118.51 2342.01 1118.42Z" fill="#FFFFFF" fill-rule="evenodd"/></g></svg>